<?xml version="1.0" standalone="no"?>
<!DOCTYPE svg PUBLIC "-//W3C//DTD SVG 20010904//EN"
 "http://www.w3.org/TR/2001/REC-SVG-20010904/DTD/svg10.dtd">
<svg version="1.0" xmlns="http://www.w3.org/2000/svg"
 width="1024.000000pt" height="1024.000000pt" viewBox="0 0 1024.000000 1024.000000"
 preserveAspectRatio="xMidYMid meet">
<metadata>
Created by potrace 1.11, written by Peter Selinger 2001-2013
</metadata>
<g transform="translate(0.000000,1024.000000) scale(0.100000,-0.100000)"
fill="#000000" stroke="none">
<path d="M5037 8172 l-2967 -1484 0 -1484 c0 -816 2 -1484 4 -1484 4 0 135 61
321 150 83 39 250 118 370 175 55 26 132 63 172 82 39 19 75 35 80 35 4 0 20
9 35 19 14 10 30 19 35 19 4 0 51 21 103 46 52 26 122 59 155 74 33 15 110 51
170 80 61 29 151 72 200 95 50 23 144 68 210 100 66 31 148 70 183 86 34 16
117 55 185 88 67 32 151 72 187 89 65 30 184 86 375 177 55 26 136 64 180 85
103 49 289 137 385 183 153 73 297 141 375 177 44 21 134 63 200 95 66 32 158
75 205 97 80 38 126 60 395 188 61 29 137 65 170 80 33 15 119 56 190 90 72
34 157 75 190 90 33 15 119 56 190 90 72 34 157 75 190 90 366 170 485 230
486 248 4 70 3 3095 -1 3101 -3 4 -1340 -661 -2973 -1477z"/>
<path d="M6015 4600 c-33 -16 -82 -39 -110 -51 -27 -12 -92 -42 -143 -66 -52
-23 -95 -43 -97 -43 -2 0 -36 -15 -77 -34 -40 -19 -125 -58 -188 -86 -63 -29
-142 -65 -175 -80 -33 -15 -82 -38 -110 -50 -52 -24 -129 -59 -230 -105 -33
-15 -103 -46 -155 -70 -106 -48 -180 -82 -288 -131 -41 -19 -75 -34 -77 -34
-2 0 -50 -22 -107 -49 -143 -67 -239 -111 -243 -111 -2 0 -43 -18 -92 -41
-125 -58 -202 -93 -248 -114 -22 -9 -71 -32 -110 -50 -38 -17 -110 -50 -160
-73 -49 -22 -130 -59 -178 -81 -49 -23 -90 -41 -92 -41 -3 0 -52 -22 -110 -50
-58 -27 -107 -50 -109 -50 -2 0 -46 -20 -98 -43 -51 -24 -100 -46 -108 -49 -9
-4 21 -22 75 -47 50 -23 108 -50 130 -61 22 -11 204 -94 405 -186 446 -203
430 -196 510 -232 103 -47 407 -186 495 -227 44 -21 123 -57 175 -80 188 -85
337 -153 423 -194 49 -22 90 -41 91 -41 2 0 46 -20 97 -44 52 -24 114 -53 139
-64 25 -11 155 -71 290 -132 135 -62 292 -134 350 -160 58 -26 240 -109 405
-185 165 -75 379 -173 475 -217 96 -44 202 -93 235 -108 33 -15 134 -62 225
-103 91 -41 334 -152 540 -247 206 -94 381 -174 388 -177 9 -4 12 312 12 1559
l0 1564 -77 34 c-43 19 -105 46 -138 61 -33 15 -94 41 -135 59 -41 17 -88 38
-105 45 -201 89 -307 135 -310 135 -2 0 -36 15 -77 34 -40 19 -107 48 -148 66
-41 18 -88 38 -105 46 -29 13 -189 83 -725 318 -146 64 -268 116 -270 115 -3
0 -32 -13 -65 -29z"/>
</g>
</svg>
