<svg width="500" height="500" viewBox="0 0 500 500" fill="none" xmlns="http://www.w3.org/2000/svg">
    <path
        d="M75 250H70H75ZM140.625 250H135.625H140.625ZM250 359.375V364.375V359.375ZM359.375 250H364.375H359.375ZM250 70C202.261 70 156.477 88.9642 122.721 122.721L129.792 129.792C161.673 97.9107 204.913 80 250 80V70ZM122.721 122.721C88.9642 156.477 70 202.261 70 250H80C80 204.913 97.9107 161.673 129.792 129.792L122.721 122.721ZM70 250C70 297.739 88.9642 343.523 122.721 377.279L129.792 370.208C97.9107 338.327 80 295.087 80 250H70ZM122.721 377.279C156.477 411.036 202.261 430 250 430V420C204.913 420 161.673 402.089 129.792 370.208L122.721 377.279ZM250 430C297.739 430 343.523 411.036 377.279 377.279L370.208 370.208C338.327 402.089 295.087 420 250 420V430ZM377.279 377.279C411.036 343.523 430 297.739 430 250H420C420 295.087 402.089 338.327 370.208 370.208L377.279 377.279ZM430 250C430 202.261 411.036 156.477 377.279 122.721L370.208 129.792C402.089 161.673 420 204.913 420 250H430ZM377.279 122.721C343.523 88.9642 297.739 70 250 70V80C295.087 80 338.327 97.9107 370.208 129.792L377.279 122.721ZM250 135.625C219.666 135.625 190.574 147.675 169.125 169.125L176.196 176.196C195.77 156.622 222.318 145.625 250 145.625V135.625ZM169.125 169.125C147.675 190.574 135.625 219.666 135.625 250H145.625C145.625 222.318 156.622 195.77 176.196 176.196L169.125 169.125ZM135.625 250C135.625 280.334 147.675 309.426 169.125 330.875L176.196 323.804C156.622 304.23 145.625 277.682 145.625 250H135.625ZM169.125 330.875C190.574 352.325 219.666 364.375 250 364.375V354.375C222.318 354.375 195.77 343.378 176.196 323.804L169.125 330.875ZM250 364.375C280.334 364.375 309.426 352.325 330.875 330.875L323.804 323.804C304.23 343.378 277.682 354.375 250 354.375V364.375ZM330.875 330.875C352.325 309.426 364.375 280.334 364.375 250H354.375C354.375 277.682 343.378 304.23 323.804 323.804L330.875 330.875ZM364.375 250C364.375 219.666 352.325 190.574 330.875 169.125L323.804 176.196C343.378 195.77 354.375 222.318 354.375 250H364.375ZM330.875 169.125C309.426 147.675 280.334 135.625 250 135.625V145.625C277.682 145.625 304.23 156.622 323.804 176.196L330.875 169.125ZM181.252 158.596C143.915 188.465 123.028 224.276 119.239 265.954C115.467 307.448 128.707 354.064 158.159 405.606L166.841 400.644C137.96 350.102 125.679 305.572 129.198 266.859C132.701 228.328 151.918 194.868 187.498 166.404L181.252 158.596ZM318.748 341.404C356.064 311.552 376.968 276.141 380.76 234.836C384.535 193.72 371.285 147.492 341.841 95.9643L333.159 100.926C362.048 151.482 374.319 195.614 370.802 233.922C367.303 272.04 348.103 305.115 312.502 333.596L318.748 341.404Z"
        fill="currentColor" />
</svg>