<?xml version="1.0" standalone="no"?>
<!DOCTYPE svg PUBLIC "-//W3C//DTD SVG 20010904//EN"
 "http://www.w3.org/TR/2001/REC-SVG-20010904/DTD/svg10.dtd">
<svg version="1.0" xmlns="http://www.w3.org/2000/svg"
 width="1024.000000pt" height="1024.000000pt" viewBox="0 0 1024.000000 1024.000000"
 preserveAspectRatio="xMidYMid meet">
<metadata>
Created by potrace 1.11, written by Peter Selinger 2001-2013
</metadata>
<g transform="translate(0.000000,1024.000000) scale(0.100000,-0.100000)"
fill="#000000" stroke="none">
<path d="M5038 8172 l-2968 -1484 0 -1484 c0 -816 2 -1484 4 -1484 4 0 135 61
321 150 83 39 250 118 370 175 55 26 132 63 172 82 39 19 75 35 80 35 4 0 20
9 35 19 14 10 30 19 35 19 4 0 51 21 103 46 52 26 122 59 155 74 33 15 110 51
170 80 61 29 151 72 200 95 50 23 144 68 210 100 66 31 147 70 180 85 33 15
119 56 190 90 72 34 162 77 200 95 120 56 235 111 360 170 66 32 147 70 180
85 54 25 138 65 385 183 168 80 299 142 375 177 44 21 134 63 200 95 66 32
157 75 203 96 45 21 128 61 185 88 209 100 324 154 382 181 33 15 119 56 190
90 72 34 157 75 190 90 33 15 119 56 190 90 72 34 157 75 190 90 366 170 485
230 486 248 4 70 3 3095 -1 3101 -3 4 -1340 -661 -2972 -1477z"/>
<path d="M6030 4607 c-25 -12 -68 -32 -95 -44 -28 -12 -99 -44 -159 -72 -59
-28 -109 -51 -111 -51 -2 0 -41 -17 -87 -39 -45 -21 -146 -67 -223 -101 -77
-35 -144 -67 -150 -71 -5 -5 -17 -9 -27 -9 -10 0 -18 -4 -18 -10 0 -5 -6 -10
-13 -10 -7 0 -31 -8 -53 -19 -21 -10 -61 -29 -89 -41 -27 -13 -79 -36 -115
-52 -36 -17 -108 -49 -160 -73 -106 -48 -180 -81 -288 -131 -41 -19 -75 -34
-77 -34 -2 0 -50 -22 -107 -49 -143 -67 -239 -111 -243 -111 -2 0 -41 -17 -87
-39 -83 -39 -126 -58 -228 -104 -30 -13 -82 -37 -115 -52 -33 -15 -114 -52
-180 -82 -66 -30 -142 -65 -170 -78 -27 -13 -122 -55 -210 -95 -88 -40 -191
-87 -230 -105 -38 -17 -77 -34 -85 -37 -9 -4 21 -22 75 -47 50 -23 108 -50
130 -61 31 -15 456 -209 810 -370 22 -10 126 -58 230 -106 105 -47 208 -94
230 -104 22 -10 89 -41 148 -69 60 -28 110 -51 112 -51 2 0 66 -29 142 -64 76
-35 242 -111 368 -169 127 -58 262 -119 300 -137 39 -18 142 -65 230 -105 88
-40 216 -99 285 -130 69 -31 283 -129 475 -217 472 -216 688 -315 760 -348 33
-15 134 -62 225 -103 91 -41 334 -152 540 -247 206 -94 381 -174 388 -177 9
-4 12 312 12 1560 l0 1565 -87 37 c-49 21 -110 48 -138 60 -27 13 -84 37 -125
55 -41 17 -88 38 -105 45 -201 89 -307 135 -310 135 -2 0 -36 15 -77 34 -40
19 -107 48 -148 66 -41 18 -95 41 -120 53 -25 11 -74 32 -110 47 -36 16 -240
105 -455 200 -214 95 -397 174 -405 176 -8 2 -35 -7 -60 -19z"/>
</g>
</svg>
