<?xml version="1.0" standalone="no"?>
<!DOCTYPE svg PUBLIC "-//W3C//DTD SVG 20010904//EN"
 "http://www.w3.org/TR/2001/REC-SVG-20010904/DTD/svg10.dtd">
<svg version="1.0" xmlns="http://www.w3.org/2000/svg"
 width="1024.000000pt" height="1024.000000pt" viewBox="0 0 1024.000000 1024.000000"
 preserveAspectRatio="xMidYMid meet">
<metadata>
Created by potrace 1.11, written by Peter Selinger 2001-2013
</metadata>
<g transform="translate(0.000000,1024.000000) scale(0.100000,-0.100000)"
fill="#000000" stroke="none">
<path d="M5038 8172 l-2968 -1484 0 -1484 c0 -816 2 -1484 4 -1484 4 0 135 61
321 150 83 39 250 118 370 175 55 26 132 63 172 82 39 19 75 35 80 35 4 0 20
9 35 19 14 10 30 19 35 19 4 0 51 21 103 46 52 26 122 59 155 74 33 15 110 51
170 80 61 29 151 72 200 95 50 23 144 68 210 100 66 31 147 70 180 85 33 15
119 56 190 90 72 34 162 77 200 95 120 56 235 111 360 170 66 32 147 70 180
85 54 25 138 65 385 183 168 80 299 142 375 177 44 21 134 63 200 95 66 32
157 75 203 96 45 21 128 61 185 88 209 100 324 154 382 181 33 15 119 56 190
90 72 34 157 75 190 90 33 15 119 56 190 90 72 34 157 75 190 90 366 170 485
230 486 248 4 70 3 3095 -1 3101 -3 4 -1340 -661 -2972 -1477z"/>
<path d="M6015 4600 c-33 -16 -82 -39 -110 -51 -27 -12 -92 -42 -143 -66 -52
-23 -95 -43 -97 -43 -2 0 -36 -15 -77 -34 -40 -19 -125 -58 -188 -86 -63 -29
-142 -65 -175 -80 -33 -15 -82 -38 -110 -50 -52 -24 -129 -59 -230 -105 -33
-15 -103 -46 -155 -70 -106 -48 -180 -82 -288 -131 -41 -19 -75 -34 -77 -34
-2 0 -50 -22 -107 -49 -143 -67 -239 -111 -243 -111 -2 0 -43 -18 -92 -41
-125 -58 -202 -93 -248 -114 -22 -9 -71 -32 -110 -50 -38 -17 -110 -50 -160
-73 -49 -22 -119 -54 -155 -70 -36 -17 -137 -63 -225 -102 -88 -40 -191 -87
-230 -105 -38 -17 -77 -34 -85 -37 -9 -4 21 -22 75 -47 50 -23 108 -50 130
-61 22 -11 204 -94 405 -186 446 -203 430 -196 510 -232 103 -47 407 -186 495
-227 44 -21 123 -57 175 -80 148 -67 329 -149 400 -182 36 -17 117 -54 180
-83 63 -29 144 -66 180 -82 36 -17 137 -63 225 -103 88 -40 216 -99 285 -130
69 -31 283 -129 475 -217 472 -216 688 -315 760 -348 33 -15 134 -62 225 -103
91 -41 334 -152 540 -247 206 -94 381 -174 388 -177 9 -4 12 312 12 1559 l0
1564 -77 34 c-43 19 -105 46 -138 61 -33 15 -94 41 -135 59 -41 17 -88 38
-105 45 -201 89 -307 135 -310 135 -2 0 -36 15 -77 34 -40 19 -107 48 -148 66
-41 18 -88 38 -105 46 -29 13 -189 83 -725 318 -146 64 -268 116 -270 115 -3
0 -32 -13 -65 -29z"/>
</g>
</svg>
