<svg width="512" height="512" viewBox="0 0 512 512" fill="none" xmlns="http://www.w3.org/2000/svg">
    <rect width="512" height="512" fill="#333333" />
    <path
        d="M256 86C162.048 86 86 162.033 86 256C86 349.952 162.033 426 256 426C289.009 426 321.355 416.307 348.82 398.428C357.049 393.071 358.845 381.779 352.626 374.181L345.65 365.658C340.391 359.235 331.132 357.661 324.144 362.142C303.929 375.108 280.207 382.129 256 382.129C186.452 382.129 129.871 325.548 129.871 256C129.871 186.452 186.452 129.871 256 129.871C324.644 129.871 382.129 169.368 382.129 239.548C382.129 266.136 367.67 294.21 342.254 296.919C330.362 296.607 330.663 288.105 333.017 276.338L349.08 193.319C351.044 183.167 343.268 173.742 332.928 173.742H302.095C299.818 173.742 297.621 174.58 295.923 176.096C294.225 177.612 293.144 179.701 292.887 181.963L292.88 182.026C282.806 169.755 265.154 167.1 251.771 167.1C200.648 167.1 157.29 209.76 157.29 270.923C157.29 315.687 182.506 343.495 223.097 343.495C241.594 343.495 262.422 332.776 274.502 317.219C281.029 340.596 302.341 340.596 322.972 340.596C397.627 340.596 426 291.507 426 239.548C426 146.085 350.613 86 256 86ZM241.139 294.682C225.887 294.682 216.413 283.973 216.413 266.734C216.413 235.892 237.512 216.879 256.603 216.879C271.884 216.879 281.007 227.327 281.007 244.827C281.007 275.715 257.786 294.682 241.139 294.682Z"
        fill="#EAEAEA" />
</svg>