<svg width="512" height="512" viewBox="0 0 512 512" fill="none" xmlns="http://www.w3.org/2000/svg">
    <rect width="512" height="512" fill="#333333" />
    <path
        d="M263.672 60C202.561 60 162.979 85.0382 131.903 129.692C126.266 137.792 128.004 148.898 135.867 154.861L168.895 179.904C176.837 185.925 188.137 184.517 194.354 176.728C213.532 152.702 227.758 138.869 257.715 138.869C281.269 138.869 310.402 154.027 310.402 176.867C310.402 194.134 296.149 203.001 272.892 216.04C245.771 231.245 209.882 250.168 209.882 297.506V305C209.882 315.148 218.108 323.375 228.257 323.375H283.742C293.891 323.375 302.117 315.148 302.117 305V300.58C302.117 267.765 398.026 266.399 398.026 177.6C398.026 110.727 328.659 60 263.672 60ZM256 345.93C226.756 345.93 202.964 369.721 202.964 398.965C202.964 428.208 226.756 452 256 452C285.244 452 309.036 428.208 309.036 398.964C309.036 369.721 285.244 345.93 256 345.93Z"
        fill="#EAEAEA" />
</svg>